# Made using Asset Forge (www.assetforge.io) version 1.3 

mtllib Room_1.mtl 

g block_default_1

v 10 0 0.5
v 10 0 -3.5
v -10 0 0.5
v -10 0 -3.5
v -10 1 -3.5
v -10 1 0.5
v 10 1 -3.5
v 10 1 0.5
vn 0 -1 0
vn -20 0 0
vn 0 0 -4
vn 0 0 4
vn 20 0 0
vn 0 1 0
vt -10 -0.5
vt -10 3.5
vt 10 -0.5
vt 10 3.5
vt -3.5 0
vt -3.5 1
vt 0.5 0
vt 0.5 1
vt 10 0
vt -10 0
vt 10 1
vt -10 1
vt 3.5 1
vt 3.5 0
vt -0.5 1
vt -0.5 0
vt -10 -3.5
vt -10 0.5
vt 10 -3.5
vt 10 0.5

usemtl _defaultMat (Instance)
usemap _defaultMat (Instance)
f 3/3/1 2/2/1 1/1/1
f 2/2/1 3/3/1 4/4/1
f 3/7/2 5/6/2 4/5/2
f 5/6/2 3/7/2 6/8/2
f 5/11/3 2/10/3 4/9/3
f 2/10/3 5/11/3 7/12/3
f 8/11/4 3/10/4 1/9/4
f 3/10/4 8/11/4 6/12/4
f 8/15/5 2/14/5 7/13/5
f 2/14/5 8/15/5 1/16/5
f 5/19/6 8/18/6 7/17/6
f 8/18/6 5/19/6 6/20/6
g block_default_2

v 5 0 -3.5
v 5 0 -23.5
v -5 0 -3.5
v -5 0 -23.5
v -5 7 -23.5
v -5 7 -3.5
v 5 7 -23.5
v 5 7 -3.5
vn 0 -7 0
vn -10 0 0
vn 0 0 -20
vn 0 0 20
vn 10 0 0
vn 0 7 0
vt -5 3.5
vt -5 23.5
vt 5 3.5
vt 5 23.5
vt -23.5 0
vt -23.5 7
vt -3.5 7
vt 5 0
vt -5 0
vt 5 7
vt -5 7
vt 23.5 7
vt 23.5 0
vt 3.5 7
vt -5 -23.5
vt -5 -3.5
vt 5 -23.5
vt 5 -3.5

usemtl _defaultMat (Instance) (Instance)
usemap _defaultMat (Instance) (Instance)
f 11/23/7 10/22/7 9/21/7
f 10/22/7 11/23/7 12/24/7
f 11/5/8 13/26/8 12/25/8
f 13/26/8 11/5/8 14/27/8
f 13/30/9 10/29/9 12/28/9
f 10/29/9 13/30/9 15/31/9
f 16/30/10 11/29/10 9/28/10
f 11/29/10 16/30/10 14/31/10
f 16/34/11 10/33/11 15/32/11
f 10/33/11 16/34/11 9/14/11
f 13/37/12 16/36/12 15/35/12
f 16/36/12 13/37/12 14/38/12
g slope_default_3

v -9.5 1 -1.5
v -1.5 1 -1.5
v -9.5 1 -3.5
v -1.5 1 -3.5
v -1.5 7 -3.5
v -1.5 7 -1.5
vn 0 -6 0
vn 8.000001 0 9.536743E-07
vn -2.384186E-07 0 2
vn 2.384186E-07 0 -2
vn -5.656855 4.24264 -4.768372E-07
vt 9.500001 1.5
vt 1.5 1.499999
vt 9.5 3.5
vt 1.499999 3.5
vt 3.5 1
vt 1.499999 1
vt 3.5 7
vt 1.499999 7
vt -1.5 7
vt -1.5 1
vt -9.500001 1
vt 9.5 1
vt 9.500001 -1.5
vt 9.5 -3.5
vt 1.5 -1.499999
vt 1.499999 -3.5

usemtl _defaultMat (Instance) (Instance)
usemap _defaultMat (Instance) (Instance)
f 19/41/13 18/40/13 17/39/13
f 18/40/13 19/41/13 20/42/13
f 21/45/14 18/44/14 20/43/14
f 18/44/14 21/45/14 22/46/14
f 17/49/15 18/48/15 22/47/15
f 19/50/16 21/46/16 20/44/16
f 22/53/17 19/52/17 17/51/17
f 19/52/17 22/53/17 21/54/17
g block_default_4

v 1.5 1 -1.5
v 1.5 1 -3.5
v -1.5 1 -1.5
v -1.5 1 -3.5
v -1.5 7 -3.5
v -1.5 7 -1.5
v 1.5 7 -3.5
v 1.5 7 -1.5
vn -3 0 0
vn 0 0 -2
vn 0 0 2
vn 3 0 0
vn 0 6 0
vt -1.5 1.5
vt -1.5 3.5
vt 1.5 1.5
vt 1.5 3.5
vt -1.5 1
vt -1.5 7
vt 1.5 1
vt 1.5 7
vt -1.5 -3.5
vt -1.5 -1.5
vt 1.5 -3.5
vt 1.5 -1.5

usemtl _defaultMat (Instance) (Instance)
usemap _defaultMat (Instance) (Instance)
f 25/57/13 24/56/13 23/55/13
f 24/56/13 25/57/13 26/58/13
f 25/59/18 27/27/18 26/6/18
f 27/27/18 25/59/18 28/60/18
f 27/62/19 24/59/19 26/61/19
f 24/59/19 27/62/19 29/60/19
f 30/62/20 25/59/20 23/61/20
f 25/59/20 30/62/20 28/60/20
f 30/62/21 24/13/21 29/34/21
f 24/13/21 30/62/21 23/61/21
f 27/65/22 30/64/22 29/63/22
f 30/64/22 27/65/22 28/66/22
g slope_default_5

v 9.5 1 -3.5
v 1.5 1 -3.5
v 9.5 1 -1.5
v 1.5 1 -1.5
v 1.5 7 -1.5
v 1.5 7 -3.5
vn -8.000001 0 9.536743E-07
vn -1.192093E-07 0 -2
vn 1.192093E-07 0 2
vn 5.656855 4.24264 -4.768372E-07
vt -9.5 3.5
vt -1.499999 3.5
vt -9.500001 1.5
vt -1.5 1.5
vt -1.5 1
vt -3.5 1
vt -1.5 7
vt -3.5 7
vt -1.499999 7
vt -1.499999 1
vt -9.5 1
vt 1.5 1
vt 1.5 7
vt 9.500001 1
vt -9.5 -3.5
vt -9.500001 -1.5
vt -1.499999 -3.5
vt -1.5 -1.5

usemtl _defaultMat (Instance) (Instance)
usemap _defaultMat (Instance) (Instance)
f 33/69/13 32/68/13 31/67/13
f 32/68/13 33/69/13 34/70/13
f 35/73/23 32/72/23 34/71/23
f 32/72/23 35/73/23 36/74/23
f 31/77/24 32/76/24 36/75/24
f 33/80/25 35/79/25 34/78/25
f 36/83/26 33/82/26 31/81/26
f 33/82/26 36/83/26 35/84/26
